<?xml version="1.0" encoding="UTF-8"?>
<svg id="Layer_1" data-name="Layer 1" xmlns="http://www.w3.org/2000/svg" xmlns:xlink="http://www.w3.org/1999/xlink" viewBox="0 0 512 512">
  <defs>
    <style>
      .cls-1 {
        fill: url(#linear-gradient);
      }

      .cls-1, .cls-2, .cls-3, .cls-4, .cls-5, .cls-6, .cls-7, .cls-8 {
        stroke-width: 0px;
      }

      .cls-2 {
        fill: url(#linear-gradient-6);
      }

      .cls-3 {
        fill: url(#linear-gradient-5);
      }

      .cls-4 {
        fill: #fff;
      }

      .cls-5 {
        fill: url(#linear-gradient-2);
      }

      .cls-6 {
        fill: url(#linear-gradient-3);
      }

      .cls-7 {
        fill: #101010;
      }

      .cls-8 {
        fill: url(#linear-gradient-4);
      }
    </style>
    <linearGradient id="linear-gradient" x1="129.12" y1="374.51" x2="133.59" y2="80.47" gradientUnits="userSpaceOnUse">
      <stop offset="0" stop-color="#ffa000"/>
      <stop offset="1" stop-color="#c67100"/>
    </linearGradient>
    <linearGradient id="linear-gradient-2" x1="363.51" y1="373.9" x2="366.35" y2="79.95" xlink:href="#linear-gradient"/>
    <linearGradient id="linear-gradient-3" x1="388.73" y1="129.23" x2="252.14" y2="129.23" gradientUnits="userSpaceOnUse">
      <stop offset="0" stop-color="#ffa000"/>
      <stop offset=".97" stop-color="#e28600"/>
    </linearGradient>
    <linearGradient id="linear-gradient-4" x1="195.17" y1="114.66" x2="158.13" y2="144.3" xlink:href="#linear-gradient-3"/>
    <linearGradient id="linear-gradient-5" x1="282.19" y1="286.26" x2="354.43" y2="368.19" xlink:href="#linear-gradient"/>
    <linearGradient id="linear-gradient-6" x1="215.01" y1="293.98" x2="142.84" y2="365.39" xlink:href="#linear-gradient"/>
  </defs>
  <circle class="cls-7" cx="256" cy="256" r="256.52"/>
  <g>
    <path class="cls-4" d="M318.85,186.62l-51.28,62.93-3.03,3.72v19.54c0,9.23-7.48,16.71-16.71,16.71h0c-9.23,0-16.71-7.48-16.71-16.71v-19.58s-3.02-3.7-3.02-3.7l-51.27-62.91h27.15c7.78,0,15.15,3.5,20.07,9.53l23.77,29.18,23.77-29.18c4.92-6.03,12.29-9.53,20.07-9.53h27.19Z"/>
    <path class="cls-1" d="M155.76,129.2v195.9l-40.49,42.89-5.5,5.83c-.72.77-2.07.31-2.09-.75V81.23c.02-1.06,1.37-1.52,2.09-.75l5.5,5.83,40.49,42.89Z"/>
    <g>
      <path class="cls-4" d="M82.62,434.03v-40.31h10.83l9.85,24.7,9.56-24.7h10.83v40.31h-9.1v-24.24l-7.77,19.52h-7.31l-7.77-19.58v24.3h-9.1Z"/>
      <path class="cls-4" d="M125.52,434.03l14.63-40.31h10.42l14.68,40.31h-9.62l-2.82-8.35h-14.97l-2.88,8.35h-9.44ZM140.38,418.43h9.96l-5.07-14.68-4.89,14.68Z"/>
      <path class="cls-4" d="M172.45,434.03v-32.48h-11.57v-7.83h32.25v7.83h-11.63v32.48h-9.04Z"/>
      <path class="cls-4" d="M196.46,434.03v-40.31h9.1v15.09h16.18v-15.09h9.04v40.31h-9.04v-17.39h-16.18v17.39h-9.1Z"/>
      <path class="cls-4" d="M236.19,434.03v-40.31h26.49v7.83h-17.39v7.31h14.68v7.83h-14.68v9.5h17.39v7.83h-26.49Z"/>
      <path class="cls-4" d="M278.63,434.03l-13.71-40.31h9.27l9.96,31.73,3.11-10.77-7.37-20.96h9.1l4.43,13.99,4.32-13.99h9.16l-7.43,20.96,3.05,10.77,10.02-31.73h9.27l-13.7,40.31h-10.94l-3.74-12.15-3.92,12.15h-10.88Z"/>
      <path class="cls-4" d="M347.56,434.03v-16.76l-13.82-23.55h10.31l8.12,14.34,8.06-14.34h10.13l-13.76,23.55v16.76h-9.04Z"/>
      <path class="cls-4" d="M372.66,434.03v-40.31h26.49v7.83h-17.39v7.31h14.68v7.83h-14.68v9.5h17.39v7.83h-26.49Z"/>
      <path class="cls-4" d="M403.81,434.03v-40.31h9.1v32.42h16.47v7.89h-25.57Z"/>
    </g>
    <path class="cls-5" d="M388.73,81.33v291.62c-.01,1.1-1.4,1.57-2.15.79l-5.44-5.76-40.49-42.89v-195.88l40.49-42.89,5.45-5.77c.75-.78,2.13-.31,2.14.79Z"/>
    <path class="cls-6" d="M388.73,81.27v.06c-.01-1.1-1.39-1.57-2.14-.79l-5.45,5.77-40.49,42.89-41.23,43.67h-8.12c-5.85,0-14.87.45-23.36,2.04-5.97,1.12-11.68,2.81-15.82,5.28l76.78-100.11c.87-1.14,2.23-1.81,3.67-1.81h53.15c1.66,0,3,1.34,3,3Z"/>
    <path class="cls-8" d="M244.29,180.2c-4.14-2.47-9.85-4.16-15.82-5.28-8.49-1.58-17.51-2.04-23.36-2.04h-8.12l-41.24-43.68-40.49-42.89-5.5-5.83c-.72-.77-2.07-.31-2.09.75.01-.8.34-1.53.85-2.06.31-.31.68-.55,1.1-.71.05-.02.11-.04.16-.05.12-.04.23-.07.36-.08.17-.03.34-.05.51-.05h53.18c1.44,0,2.79.67,3.66,1.81l76.78,100.12Z"/>
    <path class="cls-3" d="M388.73,372.95v.06c0,.81-.33,1.56-.85,2.1-.55.56-1.31.91-2.14.91h-52.46c-1.37,0-2.66-.61-3.52-1.67l-63.17-77.56c7.11-5.57,11.69-14.25,11.69-23.97v-13.82l62.38,66.08,40.49,42.89,5.44,5.76c.75.78,2.14.31,2.15-.79Z"/>
    <path class="cls-2" d="M229.17,296.68l-63.26,77.66c-.86,1.06-2.16,1.67-3.52,1.67h-51.71c-.83,0-1.59-.35-2.14-.9-.52-.54-.84-1.27-.85-2.06.02,1.06,1.37,1.52,2.09.75l5.5-5.83,40.49-42.89,61.61-65.27v12.38c0,9.83,4.63,18.73,11.81,24.48Z"/>
  </g>
</svg>